<svg width="30" height="30" viewBox="0 0 30 30" fill="none" xmlns="http://www.w3.org/2000/svg">
<path d="M14.642 5.32275H18.7594C19.2448 5.32275 19.6383 4.92924 19.6383 4.44385C19.6383 3.95846 19.2448 3.56494 18.7594 3.56494H14.642C14.1566 3.56494 13.7631 3.95846 13.7631 4.44385C13.7631 4.92924 14.1565 5.32275 14.642 5.32275Z" fill="#1A7FDC"/>
<path d="M14.642 8.84717H22.7994C23.2848 8.84717 23.6783 8.45365 23.6783 7.96826C23.6783 7.48287 23.2848 7.08936 22.7994 7.08936H14.642C14.1566 7.08936 13.7631 7.48287 13.7631 7.96826C13.7631 8.45365 14.1565 8.84717 14.642 8.84717Z" fill="#1A7FDC"/>
<path d="M27.4219 11.6078V1.62387C27.4219 0.728496 26.6934 0 25.798 0H11.6434C10.748 0 10.0195 0.728496 10.0195 1.62387V11.6078C9.35666 11.7429 8.76773 12.0827 8.32031 12.5572C7.73227 11.9335 6.89941 11.543 5.97656 11.543H3.22266C1.44568 11.543 0 12.9887 0 14.7656V26.7773C0 28.5543 1.44568 30 3.22266 30H5.97656C6.89941 30 7.73227 29.6095 8.32031 28.9857C8.90836 29.6095 9.74121 30 10.6641 30H26.7773C28.5543 30 30 28.5543 30 26.7773V14.7656C30 13.2093 28.8911 11.9072 27.4219 11.6078ZM25.6641 1.75781V11.543H11.7773V1.75781H25.6641ZM7.44141 26.7773C7.44141 27.5851 6.78428 28.2422 5.97656 28.2422H3.22266C2.41494 28.2422 1.75781 27.5851 1.75781 26.7773V14.7656C1.75781 13.9579 2.41494 13.3008 3.22266 13.3008H5.97656C6.78428 13.3008 7.44141 13.9579 7.44141 14.7656V26.7773ZM28.2422 26.7773C28.2422 27.5851 27.5851 28.2422 26.7773 28.2422H10.6641C9.85635 28.2422 9.19922 27.5851 9.19922 26.7773V14.7656C9.19922 13.9579 9.85635 13.3008 10.6641 13.3008H26.7773C27.5851 13.3008 28.2422 13.9579 28.2422 14.7656V26.7773Z" fill="#1A7FDC"/>
<path d="M14.6191 16.377H13.4473C12.9619 16.377 12.5684 16.7705 12.5684 17.2559C12.5684 17.7413 12.9619 18.1348 13.4473 18.1348H14.6191C15.1045 18.1348 15.498 17.7413 15.498 17.2559C15.498 16.7705 15.1045 16.377 14.6191 16.377Z" fill="#1A7FDC"/>
<path d="M19.3066 16.377H18.1348C17.6494 16.377 17.2559 16.7705 17.2559 17.2559C17.2559 17.7413 17.6494 18.1348 18.1348 18.1348H19.3066C19.792 18.1348 20.1855 17.7413 20.1855 17.2559C20.1855 16.7705 19.792 16.377 19.3066 16.377Z" fill="#1A7FDC"/>
<path d="M23.9941 16.377H22.8223C22.3369 16.377 21.9434 16.7705 21.9434 17.2559C21.9434 17.7413 22.3369 18.1348 22.8223 18.1348H23.9941C24.4795 18.1348 24.873 17.7413 24.873 17.2559C24.873 16.7705 24.4795 16.377 23.9941 16.377Z" fill="#1A7FDC"/>
<path d="M14.6191 19.8926H13.4473C12.9619 19.8926 12.5684 20.2861 12.5684 20.7715C12.5684 21.2569 12.9619 21.6504 13.4473 21.6504H14.6191C15.1045 21.6504 15.498 21.2569 15.498 20.7715C15.498 20.2861 15.1045 19.8926 14.6191 19.8926Z" fill="#1A7FDC"/>
<path d="M19.3066 19.8926H18.1348C17.6494 19.8926 17.2559 20.2861 17.2559 20.7715C17.2559 21.2569 17.6494 21.6504 18.1348 21.6504H19.3066C19.792 21.6504 20.1855 21.2569 20.1855 20.7715C20.1855 20.2861 19.792 19.8926 19.3066 19.8926Z" fill="#1A7FDC"/>
<path d="M23.9941 19.8926H22.8223C22.3369 19.8926 21.9434 20.2861 21.9434 20.7715C21.9434 21.2569 22.3369 21.6504 22.8223 21.6504H23.9941C24.4795 21.6504 24.873 21.2569 24.873 20.7715C24.873 20.2861 24.4795 19.8926 23.9941 19.8926Z" fill="#1A7FDC"/>
<path d="M14.6191 23.4082H13.4473C12.9619 23.4082 12.5684 23.8017 12.5684 24.2871C12.5684 24.7725 12.9619 25.166 13.4473 25.166H14.6191C15.1045 25.166 15.498 24.7725 15.498 24.2871C15.498 23.8017 15.1045 23.4082 14.6191 23.4082Z" fill="#1A7FDC"/>
<path d="M19.3066 23.4082H18.1348C17.6494 23.4082 17.2559 23.8017 17.2559 24.2871C17.2559 24.7725 17.6494 25.166 18.1348 25.166H19.3066C19.792 25.166 20.1855 24.7725 20.1855 24.2871C20.1855 23.8017 19.792 23.4082 19.3066 23.4082Z" fill="#1A7FDC"/>
<path d="M23.9941 23.4082H22.8223C22.3369 23.4082 21.9434 23.8017 21.9434 24.2871C21.9434 24.7725 22.3369 25.166 22.8223 25.166H23.9941C24.4795 25.166 24.873 24.7725 24.873 24.2871C24.873 23.8017 24.4795 23.4082 23.9941 23.4082Z" fill="#1A7FDC"/>
</svg>
