<svg width="30" height="30" viewBox="0 0 30 30" fill="none" xmlns="http://www.w3.org/2000/svg">
<g clip-path="url(#clip0)">
<path d="M15 30C14.8525 30 14.705 29.9475 14.5862 29.8438C14.1437 29.4525 3.75 20.18 3.75 11.25C3.75 5.04625 8.7975 0 15 0C21.2025 0 26.25 5.04625 26.25 11.25C26.25 20.18 15.8562 29.4525 15.4137 29.8438C15.295 29.9475 15.1475 30 15 30ZM15 1.25C9.48625 1.25 5 5.73625 5 11.25C5 18.6475 13.0637 26.6975 15 28.5238C16.9362 26.6975 25 18.6475 25 11.25C25 5.73625 20.5137 1.25 15 1.25Z" fill="#1A7FDC"/>
<path d="M15 17.5C11.5537 17.5 8.75 14.6962 8.75 11.25C8.75 7.80375 11.5537 5 15 5C18.4462 5 21.25 7.80375 21.25 11.25C21.25 14.6962 18.4462 17.5 15 17.5ZM15 6.25C12.2425 6.25 10 8.4925 10 11.25C10 14.0075 12.2425 16.25 15 16.25C17.7575 16.25 20 14.0075 20 11.25C20 8.4925 17.7575 6.25 15 6.25Z" fill="#1A7FDC"/>
</g>
<defs>
<clipPath id="clip0">
<rect width="30" height="30" fill="white"/>
</clipPath>
</defs>
</svg>
