<svg width="30" height="30" viewBox="0 0 30 30" fill="none" xmlns="http://www.w3.org/2000/svg">
<path d="M23.7094 18.584C23.0953 17.9445 22.3544 17.6026 21.5693 17.6026C20.7905 17.6026 20.0434 17.9382 19.4039 18.5777L17.403 20.5722C17.2384 20.4835 17.0738 20.4012 16.9155 20.3189C16.6876 20.2049 16.4723 20.0973 16.2887 19.9833C14.4145 18.793 12.7113 17.2417 11.0777 15.2345C10.2862 14.2341 9.75435 13.392 9.36811 12.5372C9.88731 12.0624 10.3685 11.5685 10.8371 11.0936C11.0144 10.9163 11.1916 10.7327 11.3689 10.5554C12.6986 9.22576 12.6986 7.50353 11.3689 6.17388L9.64038 4.44532C9.44409 4.24904 9.24148 4.04642 9.05153 3.84381C8.67163 3.45124 8.27273 3.04601 7.86117 2.66611C7.24699 2.05827 6.51251 1.73535 5.74005 1.73535C4.96758 1.73535 4.22044 2.05827 3.58727 2.66611C3.58094 2.67244 3.58094 2.67244 3.5746 2.67878L1.42182 4.85055C0.611365 5.66101 0.149151 6.64876 0.0478436 7.79479C-0.104117 9.64365 0.440409 11.3659 0.858302 12.4929C1.88404 15.2599 3.41631 17.8242 5.70206 20.5722C8.47534 23.8837 11.8122 26.4986 15.6238 28.3412C17.0801 29.0313 19.024 29.8481 21.1957 29.9874C21.3287 29.9938 21.468 30.0001 21.5946 30.0001C23.0573 30.0001 24.2856 29.4746 25.248 28.4298C25.2544 28.4172 25.267 28.4108 25.2734 28.3982C25.6026 27.9993 25.9825 27.6384 26.3814 27.2521C26.6537 26.9925 26.9323 26.7203 27.2045 26.4353C27.8314 25.7832 28.1606 25.0234 28.1606 24.2446C28.1606 23.4594 27.825 22.706 27.1855 22.0728L23.7094 18.584ZM25.9762 25.2513C25.9698 25.2513 25.9698 25.2576 25.9762 25.2513C25.7292 25.5172 25.476 25.7578 25.2037 26.0238C24.7921 26.4163 24.3743 26.8279 23.9817 27.2901C23.3422 27.9739 22.5887 28.2969 21.601 28.2969C21.506 28.2969 21.4047 28.2969 21.3097 28.2905C19.4292 28.1702 17.6816 27.4357 16.371 26.8089C12.7872 25.074 9.64038 22.611 7.02538 19.4895C4.86627 16.8871 3.42264 14.4811 2.46656 11.8977C1.87771 10.3211 1.66243 9.09279 1.7574 7.93409C1.82072 7.19328 2.10565 6.57911 2.63118 6.05358L4.79029 3.89446C5.10054 3.6032 5.42979 3.44491 5.75271 3.44491C6.15161 3.44491 6.47452 3.68552 6.67714 3.88813C6.68347 3.89446 6.6898 3.90079 6.69613 3.90713C7.08237 4.26803 7.44961 4.6416 7.83584 5.0405C8.03212 5.24312 8.23474 5.44573 8.43735 5.65468L10.1659 7.38323C10.8371 8.05439 10.8371 8.6749 10.1659 9.34606C9.98229 9.52968 9.805 9.7133 9.62138 9.89059C9.08952 10.4351 8.58298 10.9417 8.03212 11.4355C8.01946 11.4482 8.0068 11.4545 8.00047 11.4672C7.45594 12.0117 7.55725 12.5436 7.67122 12.9045C7.67755 12.9235 7.68388 12.9425 7.69021 12.9615C8.13976 14.0505 8.77293 15.0763 9.73535 16.2983L9.74168 16.3046C11.4892 18.4574 13.3318 20.1353 15.3642 21.4206C15.6238 21.5852 15.8898 21.7182 16.143 21.8448C16.371 21.9588 16.5863 22.0665 16.7699 22.1804C16.7952 22.1931 16.8205 22.2121 16.8459 22.2248C17.0611 22.3324 17.2638 22.383 17.4727 22.383C17.9982 22.383 18.3275 22.0538 18.4351 21.9462L20.6006 19.7807C20.8158 19.5654 21.1577 19.3058 21.5566 19.3058C21.9492 19.3058 22.2721 19.5528 22.4684 19.768C22.4747 19.7744 22.4747 19.7744 22.4811 19.7807L25.9698 23.2695C26.622 23.9153 26.622 24.5801 25.9762 25.2513Z" fill="#1A7FDC"/>
<path d="M16.2127 7.13611C17.8716 7.4147 19.3785 8.19983 20.5816 9.40286C21.7846 10.6059 22.5634 12.1128 22.8483 13.7717C22.918 14.1896 23.2789 14.4809 23.6904 14.4809C23.7411 14.4809 23.7854 14.4746 23.8361 14.4682C24.3046 14.3922 24.6149 13.949 24.5389 13.4805C24.197 11.4733 23.2472 9.64346 21.7973 8.1935C20.3473 6.74354 18.5174 5.79379 16.5103 5.45187C16.0417 5.37589 15.6048 5.68615 15.5225 6.14836C15.4402 6.61058 15.7441 7.06013 16.2127 7.13611Z" fill="#1A7FDC"/>
<path d="M29.9651 13.2336C29.4016 9.92848 27.844 6.92092 25.4506 4.52754C23.0572 2.13415 20.0496 0.576553 16.7445 0.0130316C16.2823 -0.0692806 15.8454 0.247305 15.7631 0.709519C15.6871 1.17807 15.9974 1.61495 16.4659 1.69727C19.4165 2.19747 22.1075 3.59678 24.2476 5.73056C26.3877 7.87068 27.7807 10.5617 28.2809 13.5122C28.3505 13.9301 28.7114 14.2214 29.123 14.2214C29.1736 14.2214 29.218 14.215 29.2686 14.2087C29.7308 14.1391 30.0474 13.6958 29.9651 13.2336Z" fill="#1A7FDC"/>
</svg>
