<svg width="61" height="61" viewBox="0 0 61 61" fill="none" xmlns="http://www.w3.org/2000/svg">
<path d="M52.1041 13.9791H44.4791C43.9326 13.9791 43.4473 13.6309 43.2744 13.1099L42.4713 10.7004C41.6045 8.10025 39.1824 6.35413 36.4424 6.35413H24.5575C21.8176 6.35413 19.3954 8.10025 18.5313 10.6979L17.7281 13.1099C17.5527 13.6309 17.0673 13.9791 16.5209 13.9791H8.89587C3.99038 13.9791 0 17.9696 0 22.875V45.75C0 50.6554 3.99038 54.6459 8.89587 54.6459H52.1042C57.0096 54.6459 61 50.6554 61 45.75V22.875C61 17.9696 57.0096 13.9791 52.1041 13.9791ZM58.4584 45.75C58.4584 49.2524 55.6066 52.1041 52.1042 52.1041H8.89587C5.3935 52.1041 2.54175 49.2524 2.54175 45.75V22.875C2.54175 19.3726 5.3935 16.5209 8.89587 16.5209H16.5209C18.1628 16.5209 19.6166 15.4737 20.1376 13.9156L20.9434 11.501C21.4619 9.943 22.9157 8.89575 24.5576 8.89575H36.4425C38.0844 8.89575 39.5382 9.94288 40.0592 11.5035L40.8624 13.9155C41.3834 15.4735 42.8372 16.5208 44.4791 16.5208H52.1041C55.6065 16.5208 58.4583 19.3725 58.4583 22.8749V45.75H58.4584Z" fill="white"/>
<path d="M30.5 19.0625C22.0896 19.0625 15.25 25.9021 15.25 34.3125C15.25 42.7229 22.0896 49.5625 30.5 49.5625C38.9104 49.5625 45.75 42.7229 45.75 34.3125C45.75 25.9021 38.9104 19.0625 30.5 19.0625ZM30.5 47.0209C23.4926 47.0209 17.7916 41.3199 17.7916 34.3125C17.7916 27.3051 23.4926 21.6041 30.5 21.6041C37.5074 21.6041 43.2084 27.3051 43.2084 34.3125C43.2084 41.3199 37.5074 47.0209 30.5 47.0209Z" fill="white"/>
<path d="M30.5 24.1459C24.8931 24.1459 20.3334 28.7056 20.3334 34.3125C20.3334 35.014 20.9027 35.5834 21.6042 35.5834C22.3057 35.5834 22.875 35.014 22.875 34.3125C22.875 30.1086 26.2961 26.6875 30.5 26.6875C31.2015 26.6875 31.7709 26.1181 31.7709 25.4166C31.7709 24.7151 31.2015 24.1459 30.5 24.1459Z" fill="white"/>
</svg>
