<svg width="61" height="61" viewBox="0 0 61 61" fill="none" xmlns="http://www.w3.org/2000/svg">
<path d="M58.8889 27.0911L5.51701 0.40513C4.33008 -0.189585 2.94241 -0.126087 1.80897 0.57287C0.678036 1.27171 0.00195312 2.48401 0.00195312 3.81331V57.1852C0.00195312 58.5144 0.678036 59.7267 1.80897 60.4256C2.42656 60.8093 3.1204 61 3.81423 61C4.3937 61 4.97828 60.8652 5.51963 60.5959L58.8915 33.9099C60.1902 33.2593 60.9984 31.9529 60.9984 30.4992C60.9984 29.0456 60.1902 27.739 58.8889 27.0911ZM57.7554 31.6352L4.38357 58.3211C3.81173 58.6109 3.32888 58.3745 3.14589 58.2652C2.9654 58.1534 2.54355 57.823 2.54355 57.1851V3.81319C2.54355 3.17523 2.9654 2.84487 3.14339 2.733C3.26288 2.66188 3.50424 2.53989 3.81685 2.53989C3.98971 2.53989 4.18033 2.57551 4.38357 2.67713L57.7554 29.3631C58.1925 29.5817 58.4569 30.0086 58.4569 30.4991C58.4569 30.9896 58.1925 31.4167 57.7554 31.6352Z" fill="white"/>
</svg>
